<?xml version="1.0" standalone="no"?>
<!DOCTYPE svg PUBLIC "-//W3C//DTD SVG 20010904//EN"
 "http://www.w3.org/TR/2001/REC-SVG-20010904/DTD/svg10.dtd">
<svg version="1.0" xmlns="http://www.w3.org/2000/svg"
 width="225.000000pt" height="225.000000pt" viewBox="0 0 225.000000 225.000000"
 preserveAspectRatio="xMidYMid meet">
<metadata>
Created by potrace 1.14, written by Peter Selinger 2001-2017
</metadata>
<g transform="translate(0.000000,225.000000) scale(0.100000,-0.100000)"
fill="#000000" stroke="none">
<path d="M900 2221 c-430 -95 -749 -402 -861 -826 -22 -81 -24 -111 -24 -300
0 -245 12 -305 96 -484 59 -126 123 -214 226 -312 94 -89 163 -136 286 -194
162 -77 229 -89 472 -90 189 0 219 2 300 24 406 107 709 410 816 816 21 79 24
113 24 270 0 157 -3 191 -24 270 -106 404 -410 709 -811 815 -122 32 -378 38
-500 11z m356 -122 c313 -43 590 -239 739 -522 147 -279 150 -608 7 -892 -49
-100 -85 -149 -171 -239 -167 -173 -368 -272 -607 -298 -228 -26 -477 40 -669
177 -69 49 -197 179 -242 245 -85 126 -147 294 -165 452 -27 227 40 481 177
673 49 69 179 197 245 242 199 135 453 195 686 162z"/>
<path d="M1160 1480 c0 -11 7 -20 15 -20 8 0 15 9 15 20 0 11 -7 20 -15 20 -8
0 -15 -9 -15 -20z"/>
<path d="M1434 1489 c-3 -6 -2 -15 4 -21 13 -13 32 -2 32 18 0 16 -26 19 -36
3z"/>
<path d="M360 1245 l0 -245 40 0 40 0 0 245 0 245 -40 0 -40 0 0 -245z"/>
<path d="M490 1325 c0 -176 8 -215 53 -263 83 -89 235 -69 297 40 23 40 25 53
28 216 l4 172 -41 0 -41 0 0 -171 0 -171 -34 -34 c-38 -38 -86 -45 -135 -19
-51 26 -61 65 -61 239 l0 156 -35 0 -35 0 0 -165z"/>
<path d="M920 1376 l0 -116 60 0 c52 0 64 4 92 29 29 26 32 34 32 85 0 48 -4
60 -27 83 -22 23 -37 28 -92 31 l-65 4 0 -116z m129 58 c12 -15 21 -41 21 -59
0 -50 -33 -85 -81 -85 l-39 0 0 85 0 85 39 0 c31 0 44 -6 60 -26z"/>
<path d="M1850 1375 c0 -108 1 -115 20 -115 19 0 20 7 20 115 0 108 -1 115
-20 115 -19 0 -20 -7 -20 -115z"/>
<path d="M1540 1455 c0 -7 -8 -19 -17 -25 -13 -8 -14 -13 -5 -16 8 -4 12 -28
12 -68 0 -70 20 -100 61 -94 31 4 36 26 7 30 -21 3 -23 9 -26 66 -3 61 -2 62
23 62 14 0 25 5 25 10 0 6 -11 10 -25 10 -18 0 -25 5 -25 20 0 11 -7 20 -15
20 -8 0 -15 -7 -15 -15z"/>
<path d="M1285 1433 c-42 -10 -60 -68 -30 -93 11 -9 12 -16 4 -26 -6 -7 -8
-22 -5 -32 4 -13 1 -22 -9 -26 -18 -6 -20 -47 -3 -64 7 -7 36 -12 65 -12 112
0 129 95 20 107 -54 6 -59 26 -9 31 38 4 67 40 57 72 -5 14 -2 20 9 20 9 0 16
5 16 10 0 6 -15 10 -34 10 -19 0 -40 2 -48 4 -7 2 -22 2 -33 -1z m50 -58 c0
-23 -5 -31 -21 -33 -27 -4 -47 21 -39 48 5 16 14 20 33 18 23 -2 27 -8 27 -33z
m24 -129 c19 -23 -14 -48 -58 -44 -38 3 -56 32 -29 49 21 14 74 10 87 -5z"/>
<path d="M1693 1433 c-43 -8 -27 -32 20 -30 37 2 42 -1 45 -20 3 -21 -1 -23
-35 -23 -55 0 -75 -18 -71 -60 4 -45 40 -60 87 -37 17 8 31 11 31 6 0 -5 7 -9
15 -9 12 0 15 13 15 58 0 80 -7 99 -42 111 -17 6 -34 10 -37 10 -3 -1 -16 -4
-28 -6z m67 -111 c0 -25 -19 -42 -47 -42 -28 0 -40 24 -23 45 18 22 70 20 70
-3z"/>
<path d="M1160 1345 c0 -69 3 -85 15 -85 12 0 15 16 15 85 0 69 -3 85 -15 85
-12 0 -15 -16 -15 -85z"/>
<path d="M1440 1345 c0 -69 3 -85 15 -85 12 0 15 16 15 85 0 69 -3 85 -15 85
-12 0 -15 -16 -15 -85z"/>
<path d="M1196 1154 c-4 -9 -4 -19 -1 -22 3 -3 5 0 5 7 0 7 5 9 10 6 6 -3 10
-2 10 4 0 18 -18 21 -24 5z"/>
<path d="M1378 1147 c-2 -7 -1 -32 3 -57 l6 -45 1 42 c1 23 6 43 11 45 5 2 3
8 -4 15 -10 9 -14 9 -17 0z"/>
<path d="M927 1133 c-4 -3 -7 -11 -7 -17 0 -7 3 -7 8 0 4 7 16 14 27 17 19 5
19 5 -1 6 -11 0 -24 -2 -27 -6z"/>
<path d="M1032 1128 c-7 -7 -12 -23 -11 -37 0 -15 3 -20 6 -13 2 6 18 12 33
12 16 0 31 4 34 8 2 4 -11 6 -31 4 -27 -3 -34 -1 -31 9 3 8 17 14 31 14 14 -1
23 3 21 7 -8 12 -38 10 -52 -4z"/>
<path d="M1317 1134 c17 -4 23 -14 26 -45 l4 -39 -1 42 c-1 38 -4 43 -26 45
-21 1 -21 1 -3 -3z"/>
<path d="M1443 1095 c0 -27 2 -38 4 -22 2 15 2 37 0 50 -2 12 -4 0 -4 -28z"/>
<path d="M1482 1128 c-7 -7 -11 -23 -11 -37 1 -24 2 -24 8 4 5 24 12 30 31 30
22 0 25 -4 25 -37 0 -20 3 -34 8 -31 11 7 8 58 -5 71 -7 7 -19 12 -28 12 -9 0
-21 -5 -28 -12z"/>
<path d="M1587 1133 c-4 -3 -7 -11 -7 -17 0 -7 3 -7 8 0 4 7 16 14 27 17 19 5
19 5 -1 6 -11 0 -24 -2 -27 -6z"/>
<path d="M1683 1105 c0 -22 2 -30 4 -17 2 12 2 30 0 40 -3 9 -5 -1 -4 -23z"/>
<path d="M1748 1095 c-2 -25 0 -45 4 -45 5 0 8 20 8 45 0 25 -2 45 -4 45 -2 0
-6 -20 -8 -45z"/>
<path d="M1793 1095 c0 -27 2 -38 4 -22 2 15 2 37 0 50 -2 12 -4 0 -4 -28z"/>
<path d="M1843 1133 c9 -2 23 -2 30 0 6 3 -1 5 -18 5 -16 0 -22 -2 -12 -5z"/>
<path d="M1223 1118 c5 -13 1 -18 -13 -18 -11 0 -20 6 -20 13 0 8 -4 7 -10 -3
-15 -23 -12 -28 16 -22 20 4 32 -1 45 -19 19 -24 19 -24 3 16 -16 40 -33 66
-21 33z"/>
<path d="M1638 1090 c-2 -22 0 -40 4 -40 5 0 8 18 8 40 0 22 -2 40 -4 40 -2 0
-6 -18 -8 -40z"/>
<path d="M1880 1111 c0 -5 -10 -12 -22 -14 -23 -4 -23 -4 -1 -6 14 -1 23 -9
26 -23 3 -14 5 -9 6 15 0 20 -1 37 -4 37 -3 0 -5 -4 -5 -9z"/>
<path d="M1822 1070 c0 -14 2 -19 5 -12 2 6 2 18 0 25 -3 6 -5 1 -5 -13z"/>
<path d="M1592 1054 c10 -10 20 -16 22 -13 3 3 -5 11 -17 18 -21 13 -21 12 -5
-5z"/>
<path d="M1040 1050 c8 -5 22 -9 30 -9 10 0 8 3 -5 9 -27 12 -43 12 -25 0z"/>
<path d="M1641 1024 c0 -11 3 -14 6 -6 3 7 2 16 -1 19 -3 4 -6 -2 -5 -13z"/>
<path d="M372 890 c0 -19 2 -27 5 -17 2 9 2 25 0 35 -3 9 -5 1 -5 -18z"/>
<path d="M400 890 c0 -16 5 -30 10 -30 6 0 10 7 10 17 0 14 2 14 20 -2 20 -18
20 -17 19 16 0 25 -2 29 -8 16 -6 -17 -8 -17 -20 -3 -20 24 -31 19 -31 -14z"/>
<path d="M480 905 c0 -8 6 -15 14 -15 8 0 18 -5 22 -12 5 -8 0 -9 -14 -6 -12
4 -22 2 -22 -4 0 -13 43 -6 47 9 2 6 -6 15 -19 19 -22 7 -22 7 -3 15 19 7 19
8 -2 8 -14 1 -23 -5 -23 -14z"/>
<path d="M546 912 c7 -4 14 -18 17 -32 l4 -25 2 27 c0 14 7 29 14 31 6 3 -1 6
-18 6 -16 0 -25 -3 -19 -7z"/>
<path d="M612 890 c0 -19 2 -27 5 -17 2 9 2 25 0 35 -3 9 -5 1 -5 -18z"/>
<path d="M646 912 c7 -4 14 -18 17 -32 l4 -25 2 27 c0 14 7 29 14 31 6 3 -1 6
-18 6 -16 0 -25 -3 -19 -7z"/>
<path d="M711 897 c-1 -32 22 -46 44 -27 17 14 20 50 5 50 -5 0 -10 -12 -10
-26 0 -32 -22 -27 -31 7 -7 23 -7 23 -8 -4z"/>
<path d="M786 904 c-8 -20 11 -44 33 -43 13 1 13 2 -1 6 -26 7 -22 41 5 46 20
4 19 4 -4 6 -17 0 -29 -5 -33 -15z"/>
<path d="M862 890 c0 -19 2 -27 5 -17 2 9 2 25 0 35 -3 9 -5 1 -5 -18z"/>
<path d="M894 906 c-10 -26 4 -48 28 -44 17 2 23 10 23 28 0 18 -6 26 -23 28
-13 2 -25 -3 -28 -12z m44 -13 c-2 -10 -10 -18 -18 -18 -8 0 -16 8 -18 18 -2
12 3 17 18 17 15 0 20 -5 18 -17z"/>
<path d="M971 888 c1 -31 2 -31 8 -8 l7 25 12 -22 c18 -33 32 -28 31 10 -1 17
-3 24 -6 15 -6 -22 -19 -23 -27 -3 -10 27 -26 16 -25 -17z"/>
<path d="M1093 895 c2 -23 7 -30 22 -30 14 0 20 7 21 25 1 23 1 23 -3 2 -5
-29 -25 -24 -35 9 -6 22 -7 21 -5 -6z"/>
<path d="M1171 889 c1 -19 3 -26 6 -16 5 18 6 18 24 1 18 -17 19 -16 18 17 -1
19 -3 26 -6 16 -5 -18 -6 -18 -24 -1 -18 17 -19 16 -18 -17z"/>
<path d="M1242 890 c0 -19 2 -27 5 -17 2 9 2 25 0 35 -3 9 -5 1 -5 -18z"/>
<path d="M1283 890 c6 -16 15 -30 19 -30 10 0 31 51 23 58 -2 3 -9 -6 -13 -19
l-9 -24 -7 23 c-4 12 -11 22 -16 22 -4 0 -3 -13 3 -30z"/>
<path d="M1350 890 c0 -26 3 -30 28 -29 23 2 24 2 5 6 -13 2 -23 8 -23 13 0 5
10 11 23 13 21 4 21 4 -3 7 l-25 2 25 8 25 8 -27 1 c-25 1 -28 -3 -28 -29z"/>
<path d="M1420 888 c0 -26 3 -30 11 -18 8 11 12 12 16 3 8 -22 19 -14 18 15 0
20 -6 28 -22 30 -20 3 -23 -1 -23 -30z m35 12 c-3 -5 -10 -10 -16 -10 -5 0 -9
5 -9 10 0 6 7 10 16 10 8 0 12 -4 9 -10z"/>
<path d="M1485 911 c-3 -6 5 -15 17 -22 22 -12 22 -12 3 -20 -19 -7 -19 -8 3
-8 26 -1 30 26 5 36 -15 6 -15 7 3 14 18 7 17 8 -3 8 -12 1 -24 -3 -28 -8z"/>
<path d="M1552 890 c0 -19 2 -27 5 -17 2 9 2 25 0 35 -3 9 -5 1 -5 -18z"/>
<path d="M1586 912 c7 -4 14 -18 17 -32 l4 -25 2 27 c0 14 7 29 14 31 6 3 -1
6 -18 6 -16 0 -25 -3 -19 -7z"/>
<path d="M1652 895 c-7 -14 -12 -27 -12 -28 0 -1 14 -2 30 -2 17 0 30 1 30 2
0 1 -4 13 -10 27 -12 33 -24 33 -38 1z m28 -5 c0 -5 -5 -10 -11 -10 -5 0 -7 5
-4 10 3 6 8 10 11 10 2 0 4 -4 4 -10z"/>
<path d="M1720 888 c0 -26 3 -30 11 -18 8 11 12 12 16 3 8 -22 18 -14 20 17 2
26 -1 30 -22 30 -22 0 -25 -5 -25 -32z m35 12 c-3 -5 -10 -10 -16 -10 -5 0 -9
5 -9 10 0 6 7 10 16 10 8 0 12 -4 9 -10z"/>
<path d="M1792 890 c0 -19 2 -27 5 -17 2 9 2 25 0 35 -3 9 -5 1 -5 -18z"/>
<path d="M1830 894 c-6 -14 -10 -26 -10 -27 0 -1 14 -2 30 -2 17 0 30 1 30 2
0 11 -25 53 -32 53 -5 0 -13 -12 -18 -26z m25 -4 c3 -5 1 -10 -4 -10 -6 0 -11
5 -11 10 0 6 2 10 4 10 3 0 8 -4 11 -10z"/>
<path d="M530 780 c0 -28 3 -31 28 -28 21 2 27 8 27 28 0 20 -6 26 -27 28 -25
3 -28 0 -28 -28z m45 0 c0 -8 -8 -16 -17 -18 -13 -2 -18 3 -18 18 0 15 5 20
18 18 9 -2 17 -10 17 -18z"/>
<path d="M612 780 c0 -19 2 -27 5 -17 2 9 2 25 0 35 -3 9 -5 1 -5 -18z"/>
<path d="M644 795 c-10 -25 4 -47 28 -43 25 4 37 28 13 28 -9 0 -13 -5 -9 -11
4 -7 1 -10 -6 -7 -24 8 -23 28 2 37 l23 10 -23 0 c-12 1 -25 -6 -28 -14z"/>
<path d="M722 780 c0 -19 2 -27 5 -17 2 9 2 25 0 35 -3 9 -5 1 -5 -18z"/>
<path d="M748 803 c6 -2 12 -16 12 -29 0 -13 5 -24 10 -24 6 0 10 11 10 24 0
13 6 27 13 29 6 3 -4 5 -23 5 -19 0 -29 -2 -22 -5z"/>
<path d="M820 791 c-15 -30 -12 -36 19 -37 27 -1 28 0 17 28 -12 33 -21 35
-36 9z"/>
<path d="M880 780 c0 -26 3 -30 28 -29 16 1 20 3 10 6 -11 3 -18 14 -18 29 0
13 -4 24 -10 24 -5 0 -10 -13 -10 -30z"/>
<path d="M960 780 c0 -28 3 -31 28 -28 21 2 27 8 27 28 0 20 -6 26 -27 28 -25
3 -28 0 -28 -28z m45 0 c0 -22 -29 -18 -33 3 -3 14 1 18 15 15 10 -2 18 -10
18 -18z"/>
<path d="M1040 780 c0 -26 3 -30 28 -29 l27 1 -25 7 c-24 7 -24 7 -5 19 l20
11 -20 2 c-17 1 -16 2 5 9 l25 8 -27 1 c-25 1 -28 -3 -28 -29z"/>
<path d="M1147 783 l-16 -30 29 1 c33 1 37 12 16 41 -13 18 -14 17 -29 -12z"/>
<path d="M1211 778 c1 -18 3 -25 6 -15 5 21 22 22 29 2 11 -26 24 -16 23 18
-1 30 -2 30 -8 7 l-7 -25 -12 23 c-18 32 -32 27 -31 -10z"/>
<path d="M1296 802 c7 -4 14 -18 17 -32 l4 -25 2 27 c0 14 7 29 14 31 6 3 -1
6 -18 6 -16 0 -25 -3 -19 -7z"/>
<path d="M1362 780 c0 -19 2 -27 5 -17 2 9 2 25 0 35 -3 9 -5 1 -5 -18z"/>
<path d="M1394 796 c-10 -26 4 -48 28 -44 17 2 23 10 23 28 0 18 -6 26 -23 28
-13 2 -25 -3 -28 -12z m41 -16 c0 -8 -8 -16 -17 -18 -13 -2 -18 3 -18 18 0 15
5 20 18 18 9 -2 17 -10 17 -18z"/>
<path d="M1474 796 c-10 -26 4 -46 31 -46 23 0 26 4 23 28 -3 31 -44 45 -54
18z m46 -10 c0 -20 -19 -31 -32 -18 -6 6 -7 15 -4 21 10 16 36 13 36 -3z"/>
<path d="M1553 785 c2 -25 6 -30 27 -30 21 0 25 5 27 30 2 28 1 28 -5 5 -5
-14 -14 -25 -22 -25 -8 0 -17 11 -22 25 -6 23 -7 23 -5 -5z"/>
<path d="M1632 780 c0 -19 2 -27 5 -17 2 9 2 25 0 35 -3 9 -5 1 -5 -18z"/>
<path d="M1670 784 c-6 -14 -10 -26 -10 -27 0 -1 13 -2 29 -3 28 -1 28 0 19
27 -12 36 -26 37 -38 3z m25 -4 c3 -5 1 -10 -4 -10 -6 0 -11 5 -11 10 0 6 2
10 4 10 3 0 8 -4 11 -10z"/>
</g>
</svg>
